<?xml version="1.0" standalone="no"?>
<!DOCTYPE svg PUBLIC "-//W3C//DTD SVG 20010904//EN"
 "http://www.w3.org/TR/2001/REC-SVG-20010904/DTD/svg10.dtd">
<svg version="1.0" xmlns="http://www.w3.org/2000/svg"
 width="24.000000pt" height="24.000000pt" viewBox="0 0 24.000000 24.000000"
 preserveAspectRatio="xMidYMid meet">

<g transform="translate(0.000000,24.000000) scale(0.100000,-0.100000)"
fill="#000000" stroke="none">
<path d="M107 207 c-2 -6 -3 -23 -2 -37 1 -14 3 -33 4 -42 2 -31 19 -19 25 17
10 53 -11 102 -27 62z"/>
<path d="M30 145 c-16 -20 -5 -45 20 -45 14 0 20 7 20 23 1 21 1 22 15 3 8
-11 15 -15 15 -9 0 16 -28 43 -44 43 -8 0 -19 -7 -26 -15z"/>
<path d="M156 144 c-9 -8 -16 -20 -16 -27 0 -6 7 -2 15 9 14 19 14 18 15 -3 0
-16 6 -23 20 -23 25 0 36 25 20 45 -16 19 -35 19 -54 -1z"/>
<path d="M103 93 c9 -2 25 -2 35 0 9 3 1 5 -18 5 -19 0 -27 -2 -17 -5z"/>
<path d="M50 65 c0 -18 36 -20 46 -3 4 7 3 8 -4 4 -7 -4 -12 -2 -12 3 0 6 -7
11 -15 11 -8 0 -15 -7 -15 -15z"/>
<path d="M108 55 c-5 -26 5 -41 21 -31 10 6 2 56 -9 56 -4 0 -10 -11 -12 -25z"/>
<path d="M160 69 c0 -5 -5 -7 -12 -3 -7 4 -8 3 -4 -4 10 -17 46 -15 46 3 0 8
-7 15 -15 15 -8 0 -15 -5 -15 -11z"/>
</g>
</svg>
